<?xml version="1.0" encoding="UTF-8" standalone="no"?>
<svg
   xmlns:dc="http://purl.org/dc/elements/1.1/"
   xmlns:cc="http://creativecommons.org/ns#"
   xmlns:rdf="http://www.w3.org/1999/02/22-rdf-syntax-ns#"
   xmlns:svg="http://www.w3.org/2000/svg"
   xmlns="http://www.w3.org/2000/svg"
   xmlns:sodipodi="http://sodipodi.sourceforge.net/DTD/sodipodi-0.dtd"
   xmlns:inkscape="http://www.inkscape.org/namespaces/inkscape"
   id="Capa_1"
   enable-background="new 0 0 511.964 511.964"
   height="512"
   viewBox="0 0 511.964 511.964"
   width="512"
   version="1.1"
   sodipodi:docname="tugurio.svg"
   inkscape:version="0.92.5 (2060ec1f9f, 2020-04-08)">
  <metadata
     id="metadata13">
    <rdf:RDF>
      <cc:Work
         rdf:about="">
        <dc:format>image/svg+xml</dc:format>
        <dc:type
           rdf:resource="http://purl.org/dc/dcmitype/StillImage" />
        <dc:title></dc:title>
      </cc:Work>
    </rdf:RDF>
  </metadata>
  <defs
     id="defs11" />
  <sodipodi:namedview
     pagecolor="#ffffff"
     bordercolor="#666666"
     borderopacity="1"
     objecttolerance="10"
     gridtolerance="10"
     guidetolerance="10"
     inkscape:pageopacity="0"
     inkscape:pageshadow="2"
     inkscape:window-width="1366"
     inkscape:window-height="715"
     id="namedview9"
     showgrid="false"
     inkscape:zoom="0.4609375"
     inkscape:cx="256"
     inkscape:cy="256"
     inkscape:window-x="0"
     inkscape:window-y="0"
     inkscape:window-maximized="1"
     inkscape:current-layer="Capa_1" />
  <g
     id="XMLID_14_">
    <g
       id="XMLID_1740_">
      <path
         id="XMLID_1743_"
         d="m82 182.553c-17.645 0-32 14.355-32 32v189.429c0 17.645 14.355 32 32 32s32-14.355 32-32v-189.429c0-17.645-14.355-32-32-32zm12 221.429c0 6.617-5.383 12-12 12s-12-5.383-12-12v-189.429c0-6.617 5.383-12 12-12s12 5.383 12 12z" />
      <path
         id="XMLID_1746_"
         d="m170 182.553c-17.645 0-32 14.355-32 32v189.429c0 17.645 14.355 32 32 32s32-14.355 32-32v-189.429c0-17.645-14.355-32-32-32zm12 221.429c0 6.617-5.383 12-12 12s-12-5.383-12-12v-189.429c0-6.617 5.383-12 12-12s12 5.383 12 12z" />
      <path
         id="XMLID_1749_"
         d="m502.137 350.211-50.064-104.241 13.393-56.45c.801-3.376-.206-6.926-2.659-9.379-7.473-7.473-17.408-11.588-27.976-11.588s-20.504 4.115-27.976 11.588c-3.695 3.695-8.608 5.73-13.834 5.73s-10.139-2.035-13.833-5.73c-7.473-7.473-17.408-11.588-27.977-11.588-3.851 0-7.617.553-11.211 1.609v-28.18c0-5.523-4.477-10-10-10h-6v-34c0-5.523-4.477-10-10-10h-18.056v-33.393c0-19.083-15.525-34.607-34.607-34.607h-55.28c-19.083 0-34.608 15.525-34.608 34.607v4.754l-29.225-29.225c-6.537-6.536-15.228-10.136-24.471-10.136-9.244 0-17.935 3.6-24.472 10.136l-39.089 39.089c-5.159 5.16-8.471 11.754-9.646 18.775h-18.546c-5.523 0-10 4.477-10 10v34h-6c-5.523 0-10 4.477-10 10v276c0 40.804 33.196 74 74 74h192c17.293 0 34.082-6.167 47.291-17.122 16.137 11.022 35.433 17.122 55.757 17.122h43.904c34.219 0 65.525-17.292 83.746-46.256 18.22-28.964 20.254-64.671 5.439-95.515zm-150.926-161.659c5.226 0 10.139 2.035 13.834 5.73 7.473 7.472 17.408 11.588 27.976 11.588s20.503-4.116 27.976-11.588c3.695-3.695 8.608-5.73 13.834-5.73 3.458 0 6.779.891 9.701 2.564l-10.912 45.99h-84.7l-7.771-45.777c3.008-1.81 6.461-2.777 10.062-2.777zm-145.154-148.57h55.28c8.055 0 14.607 6.553 14.607 14.607v33.393h-84.496v-33.393c.001-8.054 6.554-14.607 14.609-14.607zm-137.722 43.368 39.089-39.089c2.759-2.759 6.427-4.279 10.329-4.279 3.901 0 7.57 1.519 10.329 4.279l39.088 39.089c1.345 1.344 2.379 2.926 3.102 4.632h-105.04c.723-1.707 1.758-3.288 3.103-4.632zm5.665 388.632c-29.776 0-54-24.224-54-54v-266h105c5.523 0 10-4.477 10-10s-4.477-10-10-10h-89v-24h268v24h-89c-5.523 0-10 4.477-10 10s4.477 10 10 10h105v114.658l-30 62.464v-114.55c0-17.645-14.355-32-32-32s-32 14.355-32 32v189.429c0 17.645 14.355 32 32 32 7.156 0 13.771-2.362 19.106-6.346 2.217 5.533 4.943 10.92 8.195 16.09 3.649 5.801 7.831 11.124 12.448 15.943-9.151 6.695-20.124 10.313-31.75 10.313h-191.999zm196-257.429v189.429c0 6.617-5.383 12-12 12s-12-5.383-12-12v-189.429c0-6.617 5.383-12 12-12s12 5.384 12 12zm209.769 220.524c-14.537 23.109-39.516 36.905-66.817 36.905h-43.904c-27.301 0-52.28-13.796-66.817-36.905s-16.16-51.598-4.34-76.208l48.875-101.762h88.469l48.875 101.763c11.819 24.609 10.196 53.098-4.341 76.207z" />
      <path
         id="XMLID_1755_"
         d="m170 151.982c2.63 0 5.21-1.07 7.07-2.93s2.93-4.44 2.93-7.07-1.07-5.21-2.93-7.07-4.44-2.93-7.07-2.93-5.21 1.07-7.07 2.93-2.93 4.44-2.93 7.07 1.07 5.21 2.93 7.07 4.44 2.93 7.07 2.93z" />
    </g>
  </g>
</svg>
